# xmcd
#
# Track frame offsets:
#   150
#   17710
#   42265
#   58592
#   83010
#   95362
#   107210
#   114550
#   135515
#   160222
#   173412
#   185869
#   202929
#   216749
#   232639
#   254617
#
# Disc length: 3684 seconds
#
# Revision: 0
# Processed by: cddbd v1.5.1PL2 Copyright (c) Steve Scherf et al.
# Submitted via: uFREEDB ActiveX Control 1.5
#
DISCID=d60e6210
DTITLE=Rolando Boldrin e Convidados - Sr. Brasil
DYEAR=2006
DGENRE=Country
TTITLE0=Vide vida marvada
TTITLE1=Cevando o amargo
TTITLE2=Brejeiro
TTITLE3=Moda do fim do mundo
TTITLE4=Tristeza do Jeca
TTITLE5=Onde anda Iolanda
TTITLE6=Uma pra mim uma pra tu
TTITLE7=Peão
TTITLE8=Luar de vila Sônia
TTITLE9=Não manche o meu Panamá
TTITLE10=Amanheceu peguei a viola
TTITLE11=Chico Mineiro
TTITLE12=Casa de caboclo
TTITLE13=Mourão da porteira
TTITLE14=Êta nóis
TTITLE15=O trenzinho do caipira
EXTD=
EXTT0=
EXTT1=
EXTT2=
EXTT3=
EXTT4=
EXTT5=
EXTT6=
EXTT7=
EXTT8=
EXTT9=
EXTT10=
EXTT11=
EXTT12=
EXTT13=
EXTT14=
EXTT15=
PLAYORDER=
